# xmcd
#
# Track frame offsets:
#	150
#	10051
#	26243
#	35512
#	48443
#	60328
#	76021
#	84564
#	95343
#	108241
#	119151
#	133391
#	148299
#	165855
#	173457
#	184831
#	194017
#
# Disc length: 2696 seconds
#
# Revision: 0
# Processed by: cddbd v1.4PL0 Copyright (c) Steve Scherf et al.
# Submitted via: EasyCDDAExtractor 4.5.0.1
#
DISCID=e20a8611
DTITLE=Raimond Valgre Laulud - Üksi
DYEAR=1999
DGENRE=Folk-Rock
TTITLE0=On kevad tulnud taas
TTITLE1=Läbi saju
TTITLE2=Sa ütled mulle " päikene "
TTITLE3=Veel viivuks jää
TTITLE4=Meloodia
TTITLE5=Vaid sulle kuulub mu süda
TTITLE6=Mul meeles veel
TTITLE7=Üksi
TTITLE8=Kevad südames
TTITLE9=Suudlus kuuvalgel
TTITLE10=Ma olen liig halb
TTITLE11=Ma loodan, et saan sellest üle
TTITLE12=Muinaslugu muusikas
TTITLE13=Suveöö serenaad
TTITLE14=Suudle mind
TTITLE15=Aasta uus
TTITLE16=Hääd ööd , hääd ööd
EXTD=
EXTT0=
EXTT1=
EXTT2=
EXTT3=
EXTT4=
EXTT5=
EXTT6=
EXTT7=
EXTT8=
EXTT9=
EXTT10=
EXTT11=
EXTT12=
EXTT13=
EXTT14=
EXTT15=
EXTT16=
PLAYORDER=
